<svg width="407" height="350" viewBox="0 0 407 350" fill="none" xmlns="http://www.w3.org/2000/svg">
<path d="M159.641 337.006L161.876 324.333L158.969 323.491C148.915 320.571 145.174 319.264 139.841 316.812C132.335 313.36 125.021 309.045 119.145 304.606L114.596 301.17L104.112 310.595L93.6284 320.022L78.3192 300.014C69.8991 289.009 62.8688 279.915 62.6966 279.785C62.5243 279.654 67.0774 275.331 72.8135 270.151C78.5494 264.972 83.2882 260.488 83.3418 260.184C83.3954 259.879 82.6111 257.669 81.5999 255.265C76.953 244.23 72.7357 224.303 72.1844 210.777L71.9457 204.94H48.5191L58.7005 147.198H70.2224C78.8208 147.198 81.8559 146.953 82.1825 146.237C82.4254 145.693 83.632 142.676 84.8688 139.501C90.0775 126.124 101.168 106.496 109.879 95.2303L113.335 90.7599L106.879 82.2207L100.423 73.6653L123.057 53.2817L145.689 32.9118L152.051 41.277L158.414 49.6287L165.099 45.7639C180.843 36.6653 193.001 31.7439 211.245 27.0887L214.444 26.2739L218.371 4H272.226L270.504 14.8966L268.781 25.7904L276.318 27.9007C290.09 31.7629 303.808 38.4931 313.847 46.2827L317.816 49.3571L326.143 41.8909L334.474 34.4219L349.917 54.8054L365.365 75.1754L357.137 82.6145L348.908 90.0509L351.376 96.5015C356.934 111 359.974 125.945 360.506 141.617L360.696 147.198H381.425L371.25 204.899L360.637 205.114L350.023 205.326L348.864 208.406C343.143 223.594 332.058 243.32 322.054 256.139L318.451 260.757L324.775 269.236L331.101 277.712L308.466 298.083L285.832 318.466L279.548 310.202C276.093 305.655 273.031 301.934 272.749 301.934C272.469 301.934 270.175 303.194 267.656 304.734C255.661 312.068 232.637 321.302 220.669 323.589L215.757 324.525L211.324 349.667H157.408L159.641 337.006ZM206.262 302.686C227.053 300.611 247.031 293.452 266.564 281.078C277 274.464 295.411 257.886 303.202 248.086C338.558 203.612 348.152 149.154 328.445 104.823C324.065 94.9667 311.506 78.383 303.46 71.8265C271.471 45.7666 227.097 42.5672 184.911 63.2793C171.136 70.0422 160.722 77.2043 148.041 88.6305C125.282 109.142 110.434 132.217 102.056 160.061C83.8094 220.761 107.938 277.794 159.904 296.785C175.713 302.558 189.724 304.345 206.263 302.695L206.262 302.686ZM165.958 282.816C161.892 281.216 156.092 278.37 153.058 276.493L147.565 273.076L153.43 237.788C157.588 212.773 159.556 202.295 160.202 201.8C160.7 201.418 163.52 200.092 166.47 198.854C169.418 197.615 176.208 194.717 181.552 192.411L206.817 181.506C215.38 177.824 223.438 174.32 224.725 173.75C226.012 173.179 234.064 169.676 242.623 166.004C251.182 162.331 262.55 157.432 267.9 155.123C273.249 152.815 279.971 149.938 282.864 148.73L288.102 146.53L267.221 264.953L261.318 268.88C255.211 272.954 239.697 280.771 236.071 281.616L234.012 282.096L251.946 180.387L240.822 185.377C234.706 188.122 222.683 193.487 214.104 197.3C205.525 201.113 196.257 205.345 193.5 206.703L188.5 209.174L181.679 247.22C177.272 271.814 174.592 285.347 174.102 285.494C173.684 285.619 170.021 284.407 165.958 282.816ZM152.592 144.629L161.48 94.2201L165.807 90.6597C171.268 86.1616 181.554 79.6703 188.919 76.069C192.045 74.5398 194.772 73.2905 194.987 73.2905C195.202 73.2905 191.821 93.3888 187.491 117.944C182.412 146.748 179.871 162.597 180.325 162.597C180.715 162.597 184.776 160.865 189.351 158.747C193.926 156.628 197.776 154.898 197.908 154.898C198.04 154.898 202.469 152.961 207.749 150.596C213.03 148.231 220.862 144.735 225.151 142.83C229.44 140.927 235.33 138.309 238.217 137.01L243.478 134.653L255.622 65.778L260.156 66.84C266.488 68.3175 276.454 72.1986 280.287 74.6784L283.515 76.7615L278.175 108.11L272.834 139.46L269.5 141.117C267.671 142.027 262.665 144.257 258.375 146.071C249.191 149.952 239.302 154.194 214.408 164.933C204.351 169.279 192.282 174.44 187.58 176.441C182.879 178.443 176.581 181.137 173.589 182.449C157.97 189.277 146.872 194.019 145.376 194.497L143.695 195.04L152.592 144.629Z" fill="#426251"/>
<path d="M136.641 333.006L138.876 320.333L135.969 319.491C125.916 316.571 122.175 315.264 116.841 312.812C109.335 309.36 102.021 305.045 96.145 300.606L91.5961 297.17L81.1125 306.595L70.6288 316.022L55.3196 296.014C46.8995 285.009 39.8692 275.915 39.6969 275.785C39.5247 275.654 44.0777 271.331 49.8139 266.151C55.5498 260.972 60.2885 256.488 60.3422 256.184C60.3958 255.879 59.6115 253.669 58.6003 251.265C53.9533 240.23 49.736 220.303 49.1848 206.777L48.9461 200.94H25.5194L35.7009 143.198H47.2228C55.8211 143.198 58.8563 142.953 59.1829 142.237C59.4258 141.693 60.6324 138.676 61.8692 135.501C67.0779 122.124 78.1685 102.496 86.8796 91.2303L90.3353 86.7599L83.8791 78.2207L77.4233 69.6653L100.057 49.2817L122.689 28.9118L129.052 37.277L135.414 45.6287L142.1 41.7639C157.843 32.6653 170.002 27.7439 188.245 23.0887L191.444 22.2739L195.371 0H249.226L247.505 10.8966L245.782 21.7904L253.319 23.9007C267.09 27.7629 280.808 34.4931 290.847 42.2827L294.816 45.3571L303.144 37.8909L311.474 30.4219L326.918 50.8054L342.366 71.1754L334.137 78.6145L325.908 86.0509L328.377 92.5015C333.934 107 336.974 121.945 337.507 137.617L337.697 143.198H358.425L348.251 200.899L337.637 201.114L327.023 201.326L325.865 204.406C320.143 219.594 309.058 239.32 299.054 252.139L295.451 256.757L301.776 265.236L308.101 273.712L285.466 294.083L262.832 314.466L256.548 306.202C253.093 301.655 250.031 297.934 249.75 297.934C249.469 297.934 247.175 299.194 244.656 300.734C232.661 308.068 209.637 317.302 197.669 319.589L192.757 320.525L188.324 345.667H134.409L136.641 333.006ZM183.263 298.686C204.053 296.611 224.031 289.452 243.564 277.078C254.001 270.464 272.411 253.886 280.202 244.086C315.558 199.612 325.153 145.154 305.446 100.823C301.065 90.9667 288.506 74.383 280.461 67.8265C248.472 41.7666 204.097 38.5672 161.911 59.2793C148.136 66.0422 137.723 73.2043 125.041 84.6305C102.282 105.142 87.4347 128.217 79.0563 156.061C60.8098 216.761 84.9388 273.794 136.905 292.785C152.713 298.558 166.724 300.345 183.264 298.695L183.263 298.686ZM142.958 278.816C138.892 277.216 133.093 274.37 130.059 272.493L124.566 269.076L130.43 233.788C134.588 208.773 136.557 198.295 137.202 197.8C137.7 197.418 140.521 196.092 143.47 194.854C146.419 193.615 153.208 190.717 158.552 188.411L183.817 177.506C192.381 173.824 200.438 170.32 201.726 169.75C203.012 169.179 211.065 165.676 219.623 162.004C228.182 158.331 239.551 153.432 244.9 151.123C250.249 148.815 256.971 145.938 259.864 144.73L265.103 142.53L244.222 260.953L238.319 264.88C232.212 268.954 216.697 276.771 213.072 277.616L211.012 278.096L228.946 176.387L217.822 181.377C211.706 184.122 199.683 189.487 191.104 193.3C182.526 197.113 173.257 201.345 170.5 202.703L165.5 205.174L158.68 243.22C154.272 267.814 151.592 281.347 151.102 281.494C150.684 281.619 147.021 280.407 142.958 278.816ZM129.592 140.629L138.48 90.2201L142.807 86.6597C148.269 82.1616 158.555 75.6703 165.919 72.069C169.046 70.5398 171.772 69.2905 171.987 69.2905C172.203 69.2905 168.821 89.3888 164.491 113.944C159.412 142.748 156.871 158.597 157.325 158.597C157.716 158.597 161.776 156.865 166.352 154.747C170.926 152.628 174.776 150.898 174.908 150.898C175.04 150.898 179.469 148.961 184.75 146.596C190.03 144.231 197.863 140.735 202.152 138.83C206.44 136.927 212.331 134.309 215.217 133.01L220.478 130.653L232.622 61.778L237.157 62.84C243.488 64.3175 253.454 68.1986 257.287 70.6784L260.515 72.7615L255.176 104.11L249.835 135.46L246.5 137.117C244.671 138.027 239.665 140.257 235.375 142.071C226.191 145.952 216.302 150.194 191.408 160.933C181.351 165.279 169.282 170.44 164.581 172.441C159.879 174.443 153.582 177.137 150.59 178.449C134.97 185.277 123.872 190.019 122.376 190.497L120.695 191.04L129.592 140.629Z" fill="#387FF2"/>
<path d="M146.641 337.006L148.876 324.333L145.969 323.491C135.915 320.571 132.175 319.264 126.841 316.812C119.335 313.36 112.021 309.045 106.145 304.606L101.596 301.17L91.1123 310.595L80.6285 320.022L65.3193 300.014C56.8992 289.009 49.8689 279.915 49.6967 279.785C49.5244 279.654 54.0775 275.331 59.8136 270.151C65.5495 264.972 70.2883 260.488 70.3419 260.184C70.3956 259.879 69.6113 257.669 68.6 255.265C63.9531 244.23 59.7358 224.303 59.1845 210.777L58.9459 204.94H35.5192L45.7007 147.198H57.2225C65.8209 147.198 68.8561 146.953 69.1826 146.237C69.4256 145.693 70.6321 142.676 71.869 139.501C77.0777 126.124 88.1683 106.496 96.8793 95.2303L100.335 90.7599L93.8788 82.2207L87.423 73.6653L110.057 53.2817L132.689 32.9118L139.052 41.277L145.414 49.6287L152.1 45.7639C167.843 36.6653 180.002 31.7439 198.245 27.0887L201.444 26.2739L205.371 4H259.226L257.505 14.8966L255.781 25.7904L263.318 27.9007C277.09 31.7629 290.808 38.4931 300.847 46.2827L304.816 49.3571L313.143 41.8909L321.474 34.4219L336.917 54.8054L352.366 75.1754L344.137 82.6145L335.908 90.0509L338.376 96.5015C343.934 111 346.974 125.945 347.506 141.617L347.696 147.198H368.425L358.251 204.899L347.637 205.114L337.023 205.326L335.864 208.406C330.143 223.594 319.058 243.32 309.054 256.139L305.451 260.757L311.775 269.236L318.101 277.712L295.466 298.083L272.832 318.466L266.548 310.202C263.093 305.655 260.031 301.934 259.75 301.934C259.469 301.934 257.175 303.194 254.656 304.734C242.661 312.068 219.637 321.302 207.669 323.589L202.757 324.525L198.324 349.667H144.409L146.641 337.006ZM193.262 302.686C214.053 300.611 234.031 293.452 253.564 281.078C264 274.464 282.411 257.886 290.202 248.086C325.558 203.612 335.152 149.154 315.445 104.823C311.065 94.9667 298.506 78.383 290.46 71.8265C258.471 45.7666 214.097 42.5672 171.911 63.2793C158.136 70.0422 147.722 77.2043 135.041 88.6305C112.282 109.142 97.4345 132.217 89.0561 160.061C70.8096 220.761 94.9385 277.794 146.904 296.785C162.713 302.558 176.724 304.345 193.263 302.695L193.262 302.686ZM152.958 282.816C148.892 281.216 143.093 278.37 140.058 276.493L134.565 273.076L140.43 237.788C144.588 212.773 146.556 202.295 147.202 201.8C147.7 201.418 150.521 200.092 153.47 198.854C156.419 197.615 163.208 194.717 168.552 192.411L193.817 181.506C202.38 177.824 210.438 174.32 211.725 173.75C213.012 173.179 221.064 169.676 229.623 166.004C238.182 162.331 249.55 157.432 254.9 155.123C260.249 152.815 266.971 149.938 269.864 148.73L275.103 146.53L254.221 264.953L248.319 268.88C242.211 272.954 226.697 280.771 223.072 281.616L221.012 282.096L238.946 180.387L227.822 185.377C221.706 188.122 209.683 193.487 201.104 197.3C192.525 201.113 183.257 205.345 180.5 206.703L175.5 209.174L168.68 247.22C164.272 271.814 161.592 285.347 161.102 285.494C160.684 285.619 157.021 284.407 152.958 282.816ZM139.592 144.629L148.48 94.2201L152.807 90.6597C158.269 86.1616 168.554 79.6703 175.919 76.069C179.045 74.5398 181.772 73.2905 181.987 73.2905C182.203 73.2905 178.821 93.3888 174.491 117.944C169.412 146.748 166.871 162.597 167.325 162.597C167.716 162.597 171.776 160.865 176.351 158.747C180.926 156.628 184.776 154.898 184.908 154.898C185.04 154.898 189.469 152.961 194.749 150.596C200.03 148.231 207.862 144.735 212.152 142.83C216.44 140.927 222.33 138.309 225.217 137.01L230.478 134.653L242.622 65.778L247.156 66.84C253.488 68.3175 263.454 72.1986 267.287 74.6784L270.515 76.7615L265.175 108.11L259.835 139.46L256.5 141.117C254.671 142.027 249.665 144.257 245.375 146.071C236.191 149.952 226.302 154.194 201.408 164.933C191.351 169.279 179.282 174.44 174.58 176.441C169.879 178.443 163.582 181.137 160.589 182.449C144.97 189.277 133.872 194.019 132.376 194.497L130.695 195.04L139.592 144.629Z" fill="#FFFFFF"/>
</svg>
