<svg width="46" height="21" viewBox="0 0 46 21" fill="none" xmlns="http://www.w3.org/2000/svg">
<g clip-path="url(#clip0_222_111)">
<path d="M45.5583 20.7667H0.336914V0.436646H45.5583V20.7667ZM0.971483 20.1135H44.924V1.09069H0.971483V20.1135Z" fill="black"/>
<path d="M6.78253 13.8366H6.64593C5.75463 13.8366 4.59396 13.3154 4.19823 12.5551C4.09203 12.3828 4.40956 12.2644 4.50218 12.4355C4.84906 13.0914 5.87547 13.563 6.64593 13.563H6.78253C7.91373 13.563 8.87891 13.0914 8.87891 12.082C8.87891 10.9417 7.76115 10.6651 6.66 10.4826C5.8001 10.3382 4.44017 10.0089 4.44017 9.01456V8.89511C4.44017 7.82155 5.58933 7.36188 6.62917 7.36188H6.72066C7.64173 7.36188 8.27559 7.71492 8.74181 8.0692C8.90917 8.202 8.69783 8.41124 8.53111 8.28056C8.07804 7.93765 7.50513 7.63541 6.72066 7.63541H6.62917C5.76991 7.63541 4.7435 7.99013 4.7435 8.89504V9.01449C4.7435 9.70804 5.78334 10.0614 6.70497 10.2332C7.95848 10.4569 9.19623 10.7175 9.19623 12.082C9.19623 13.3257 7.97184 13.8366 6.78253 13.8366Z" fill="black"/>
<path d="M6.78235 13.9699H6.64575C5.75212 13.9699 4.51861 13.452 4.0881 12.6136C4.04136 12.5425 4.03804 12.4508 4.07926 12.3733C4.1279 12.2828 4.23636 12.2221 4.35409 12.2221C4.46467 12.2221 4.56351 12.2789 4.61357 12.3713C4.94284 12.9958 5.94832 13.4313 6.64568 13.4313H6.78228C7.73282 13.4313 8.75259 13.0761 8.75259 12.0821C8.75259 11.0496 7.70751 10.7893 6.63967 10.6108C6.06527 10.5154 4.31393 10.2201 4.31393 9.01457V8.89512C4.31393 7.75174 5.51505 7.23004 6.62899 7.23004H6.72048C7.73204 7.23004 8.40126 7.65014 8.81664 7.96339C8.91591 8.03984 8.95112 8.15164 8.91888 8.25791C8.86062 8.43516 8.61493 8.50913 8.45386 8.38399C8.10402 8.12161 7.54305 7.76813 6.72048 7.76813H6.62899C5.97582 7.76813 4.86966 8.00566 4.86966 8.89505V9.0145C4.86966 9.66403 6.03409 9.97451 6.72889 10.1052C7.88413 10.3099 9.32168 10.5665 9.32168 12.082C9.32175 13.4749 7.95285 13.9699 6.78235 13.9699ZM4.35416 12.482C4.32814 12.482 4.30389 12.4967 4.30134 12.5016C4.68675 13.218 5.82105 13.7068 6.64575 13.7068H6.78235C7.83768 13.7068 9.06934 13.2824 9.06934 12.0821C9.06934 11.2755 8.60368 10.8846 7.88667 10.6425C8.48829 10.8717 9.00479 11.2806 9.00479 12.0821C9.00479 13.061 8.13152 13.6947 6.78228 13.6947H6.64575C5.86107 13.6947 4.76954 13.2123 4.38908 12.4995C4.38322 12.4877 4.37318 12.482 4.35416 12.482ZM6.62899 7.49351C5.603 7.49351 4.56634 7.92753 4.56634 8.89505V9.0145C4.56634 9.61411 5.13127 10.0276 6.28777 10.2778C5.19242 10.014 4.61725 9.58131 4.61725 9.0145V8.89505C4.61725 7.9346 5.62648 7.50597 6.62906 7.50597H6.72055C7.61644 7.50597 8.22641 7.88708 8.60559 8.17533C8.6437 8.20281 8.67488 8.18058 8.67806 8.17577C8.28134 7.88081 7.65582 7.49351 6.72055 7.49351H6.62899Z" fill="black"/>
<path d="M13.1897 13.8366H13.0229C11.7716 13.8366 10.7588 12.9607 10.7588 11.8729V9.32789C10.7588 8.23931 11.7716 7.36188 13.0229 7.36188H13.1897C14.427 7.36188 15.4534 8.23931 15.4534 9.32789V11.8729C15.4534 12.9607 14.4406 13.8366 13.1897 13.8366ZM15.1361 9.32781C15.1361 8.3963 14.2598 7.63541 13.1897 7.63541H13.0229C11.9521 7.63541 11.0763 8.39623 11.0763 9.32781V11.8729C11.0763 12.8029 11.9521 13.563 13.0229 13.563H13.1897C14.2598 13.563 15.1361 12.8028 15.1361 11.8729V9.32781Z" fill="black"/>
<path d="M13.1898 13.9699H13.0231C11.7047 13.9699 10.6328 13.0272 10.6328 11.8729V9.32788C10.6328 8.17328 11.7047 7.2301 13.0231 7.2301H13.1898C14.508 7.2301 15.5799 8.17328 15.5799 9.32788V11.8729C15.5799 13.0272 14.508 13.9699 13.1898 13.9699ZM13.0231 7.4935C11.8455 7.4935 10.8848 8.31474 10.8848 9.32781V11.8729C10.8848 12.883 11.8454 13.7067 13.0231 13.7067H13.1898C14.367 13.7067 15.3271 12.883 15.3271 11.8729V9.32781C15.3271 8.31474 14.367 7.4935 13.1898 7.4935H13.0231ZM13.1898 13.6946H13.0231C11.8781 13.6946 10.9498 12.877 10.9498 11.8729V9.32781C10.9498 8.32371 11.8781 7.50604 13.0231 7.50604H13.1898C14.3314 7.50604 15.2627 8.32371 15.2627 9.32781V11.8729C15.2628 12.877 14.3314 13.6946 13.1898 13.6946ZM13.0231 7.76819C12.0187 7.76819 11.202 8.46889 11.202 9.32781V11.8729C11.202 12.7321 12.0187 13.4312 13.0231 13.4312H13.1898C14.1936 13.4312 15.0101 12.7321 15.0101 11.8729V9.32781C15.0101 8.46889 14.1936 7.76819 13.1898 7.76819H13.0231Z" fill="black"/>
<path d="M21.4352 7.36189C21.3597 7.36189 21.2849 7.41502 21.2849 7.50569V8.31738V9.21092V11.9622V12.1576C21.1781 12.944 20.3353 13.5631 19.3343 13.5631H19.168C18.0974 13.5631 17.2207 12.8029 17.2207 11.8577V7.50561C17.2207 7.41495 17.1457 7.36182 17.0536 7.36182C16.979 7.36182 16.9035 7.41495 16.9035 7.50561V11.8575C16.9035 12.9607 17.9164 13.8366 19.1679 13.8366H19.3343C20.1541 13.8366 20.9868 13.4539 21.2848 12.9021V14.6242C21.2848 15.5546 20.4084 16.3141 19.3376 16.3141H19.1711C18.2205 16.3141 17.3137 15.8708 17.0737 15.1889C17.0435 15.1109 16.9823 15.085 16.9209 15.085C16.8456 15.085 16.7573 15.1371 16.7573 15.2161C16.7573 15.2412 16.7573 15.2525 16.7712 15.2667C17.0573 16.1056 18.1451 16.5906 19.1711 16.5906H19.3376C20.5889 16.5906 21.6012 15.712 21.6012 14.6242V7.50561C21.6012 7.41495 21.5101 7.36189 21.4352 7.36189Z" fill="black"/>
<path d="M19.3377 16.7207H19.1712C18.1672 16.7207 16.9895 16.2455 16.6585 15.3327C16.6279 15.2893 16.6279 15.2431 16.6279 15.2161C16.6279 15.0585 16.7817 14.9513 16.921 14.9513C17.0466 14.9513 17.1462 15.0232 17.1908 15.1413C17.4063 15.7462 18.2373 16.1844 19.1712 16.1844H19.3377C20.3425 16.1844 21.1586 15.4852 21.1586 14.6241V13.281C20.7478 13.6937 20.0469 13.9697 19.3343 13.9697H19.168C17.8489 13.9697 16.7777 13.0207 16.7777 11.8574V7.50561C16.7777 7.35227 16.8985 7.23004 17.0536 7.23004C17.2249 7.23004 17.3468 7.34651 17.3468 7.50561V11.8575C17.3468 12.7251 18.1633 13.4312 19.1679 13.4312H19.3343C20.2594 13.4312 21.0603 12.8642 21.16 12.1411L21.1585 11.9622V7.50561C21.1585 7.35227 21.2794 7.23004 21.4352 7.23004C21.577 7.23004 21.7279 7.33507 21.7279 7.50561V14.6242C21.7279 15.7818 20.6565 16.7207 19.3377 16.7207ZM16.891 15.2221V15.2225C17.1688 16.0369 18.2478 16.46 19.1712 16.46H19.3377C20.5152 16.46 21.4753 15.6363 21.4753 14.6242V7.50561C21.4728 7.50219 21.4548 7.49351 21.4352 7.49351C21.4343 7.49351 21.411 7.49395 21.411 7.50561V12.1574C21.2941 13.0424 20.3994 13.6947 19.3343 13.6947H19.1679C18.0242 13.6947 17.0944 12.8703 17.0944 11.8575V7.50561C17.0927 7.5 17.0793 7.49351 17.0535 7.49351C17.0535 7.49351 17.0296 7.49395 17.0296 7.50561V11.8575C17.0296 12.8787 17.9898 13.7068 19.1679 13.7068H19.3343C20.1155 13.7068 20.907 13.3334 21.1732 12.8374L21.4109 12.3941V14.6242C21.4109 15.6302 20.48 16.4471 19.3376 16.4471H19.1711C18.1189 16.4471 17.2073 15.9483 16.9538 15.2328C16.9452 15.2141 16.9159 15.21 16.891 15.2221Z" fill="black"/>
<path d="M25.3885 13.8366C24.4082 13.8366 23.6375 13.1558 23.6375 12.3052V4.76653C23.6375 4.67375 23.7128 4.62128 23.7877 4.62128C23.8798 4.62128 23.9551 4.66209 23.9551 4.76653V12.3052C23.9551 12.9983 24.5889 13.563 25.3884 13.563C25.4939 13.563 25.5535 13.6283 25.5535 13.7068C25.5535 13.774 25.4941 13.8366 25.3885 13.8366Z" fill="black"/>
<path d="M25.3885 13.9698C24.334 13.9698 23.5112 13.2377 23.5112 12.3052V4.7665C23.5112 4.61213 23.6316 4.49078 23.7877 4.49078C23.9632 4.49078 24.0805 4.60164 24.0805 4.7665V12.3052C24.0805 12.926 24.6683 13.4311 25.3885 13.4311C25.558 13.4311 25.6796 13.5476 25.6796 13.7067C25.6797 13.8346 25.5778 13.9698 25.3885 13.9698ZM23.7878 4.75163C23.7878 4.75163 23.7643 4.75251 23.7643 4.7665V12.3052C23.7643 13.0914 24.4768 13.7067 25.3886 13.7067C25.4137 13.7067 25.4275 13.698 25.43 13.6972C25.4275 13.6972 25.4032 13.6946 25.3886 13.6946C24.5268 13.6946 23.8284 13.0714 23.8284 12.3052V4.7665C23.8304 4.75979 23.8191 4.75163 23.7878 4.75163Z" fill="black"/>
<path d="M31.0479 10.7175H26.8347V11.8729C26.8347 12.8029 27.7106 13.563 28.7812 13.563H28.947C29.7908 13.563 30.5198 13.0767 30.7871 12.4096C30.8034 12.3428 30.8646 12.3165 30.9263 12.3165C31.015 12.3165 31.1038 12.3685 31.1038 12.4472C31.1038 12.4611 31.0933 12.4878 31.0933 12.5016C30.7872 13.2744 29.9413 13.8366 28.9471 13.8366H28.7812C27.5276 13.8366 26.5186 12.9607 26.5186 11.8729V9.32789C26.5186 8.23931 27.5584 7.36188 28.7959 7.36188H28.9185C30.1691 7.36188 31.2094 8.17583 31.2094 9.32789V10.5723C31.2095 10.6514 31.1379 10.7175 31.0479 10.7175ZM30.8918 9.32781C30.8918 8.3963 30.0197 7.63541 28.947 7.63541H28.7958C27.7254 7.63541 26.8347 8.39623 26.8347 9.32781V10.4417H30.8918V9.32781Z" fill="black"/>
<path d="M28.947 13.9699H28.7811C27.4636 13.9699 26.3911 13.0272 26.3911 11.8729V9.32788C26.3911 8.17328 27.4715 7.2301 28.7958 7.2301H28.9184C30.2993 7.2301 31.3391 8.13203 31.3391 9.32788V10.5723C31.3391 10.7261 31.2077 10.8476 31.0478 10.8476H26.9621V11.8729C26.9621 12.7321 27.778 13.4312 28.7811 13.4312H28.947C29.7204 13.4312 30.4144 12.9999 30.6749 12.3596C30.6911 12.2609 30.792 12.1869 30.9263 12.1869C31.1009 12.1869 31.2334 12.3019 31.2334 12.4471C31.2334 12.476 31.2236 12.5019 31.2165 12.52L31.2078 12.5503C30.8795 13.4 29.9697 13.9699 28.947 13.9699ZM28.7958 7.4935C27.6086 7.4935 26.6448 8.31474 26.6448 9.32781V11.8729C26.6448 12.883 27.6043 13.7067 28.7811 13.7067H28.947C29.8612 13.7067 30.6742 13.2092 30.9684 12.4648C30.9693 12.4605 30.9705 12.4561 30.9723 12.4527C30.961 12.4518 30.9425 12.4471 30.9264 12.4471C30.6069 13.1985 29.8215 13.6946 28.9471 13.6946H28.7811C27.637 13.6946 26.7078 12.877 26.7078 11.8729V10.5873H31.0478C31.0685 10.5873 31.0849 10.5739 31.0878 10.5705L31.0866 9.32781C31.0866 8.28267 30.1521 7.4935 28.9184 7.4935H28.7958ZM31.0222 10.5718H26.7078V9.32788C26.7078 8.32378 27.6446 7.50611 28.7958 7.50611H28.947C30.0943 7.50611 31.0223 8.32378 31.0223 9.32788L31.0222 10.5718ZM26.9621 10.312H30.7694V9.32781C30.7694 8.46889 29.9495 7.76819 28.947 7.76819H28.7958C27.7857 7.76819 26.9621 8.46889 26.9621 9.32781V10.312Z" fill="black"/>
<path d="M37.2912 13.8366C37.22 13.8366 37.141 13.7848 37.141 13.6947V9.34232C37.141 8.39637 36.2518 7.63548 35.178 7.63548H35.028C33.9536 7.63548 33.0636 8.34412 33.0636 9.21084V13.6946C33.0636 13.7847 32.9923 13.8366 32.8971 13.8366C32.8257 13.8366 32.7466 13.7847 32.7466 13.6946V7.5056C32.7466 7.41494 32.8257 7.37492 32.8971 7.37492C32.9924 7.37492 33.0636 7.41494 33.0636 7.5056V8.3173C33.3541 7.75479 34.1992 7.36188 35.028 7.36188H35.178C36.4315 7.36188 37.4583 8.23931 37.4583 9.34232V13.6947C37.4583 13.7848 37.3699 13.8366 37.2912 13.8366Z" fill="black"/>
<path d="M37.2911 13.9699C37.1352 13.9699 37.0128 13.8484 37.0128 13.6947V9.34233C37.0128 8.4748 36.1913 7.76821 35.1778 7.76821H35.0279C34.0337 7.76821 33.1935 8.42765 33.1935 9.21085V13.6947C33.1935 13.8535 33.0681 13.9698 32.897 13.9698C32.7414 13.9698 32.6245 13.8484 32.6245 13.6947V7.50561C32.6245 7.35518 32.7368 7.24454 32.897 7.24454C33.0742 7.24454 33.1935 7.35015 33.1935 7.50561V7.93081C33.598 7.51028 34.3069 7.23004 35.0279 7.23004H35.1778C36.5059 7.23004 37.5883 8.17715 37.5883 9.34225V13.6947C37.5883 13.8629 37.4351 13.9699 37.2911 13.9699ZM35.0279 7.50605H35.1778C36.3283 7.50605 37.271 8.33028 37.271 9.34225V13.6947C37.271 13.7068 37.2911 13.7068 37.2911 13.7068C37.3124 13.7068 37.3301 13.6972 37.3309 13.6917L37.33 9.34225C37.33 8.32109 36.3684 7.49351 35.1778 7.49351H35.0279C34.2301 7.49351 33.4339 7.87483 33.1774 8.37947L32.9407 8.85015V7.50765C32.9382 7.50947 32.9227 7.50525 32.8969 7.50525C32.8859 7.50525 32.8737 7.50955 32.8713 7.51195L32.8771 13.6947C32.8771 13.7064 32.8965 13.7068 32.8965 13.7068C32.9252 13.7068 32.9394 13.6982 32.9411 13.6973L32.9407 9.21085C32.9408 8.27059 33.8768 7.50605 35.0279 7.50605Z" fill="black"/>
<path d="M39.8085 12.3052V7.66136H38.993C38.7637 7.66136 38.7637 7.38732 38.993 7.38732H39.8085V4.75254C39.8085 4.56865 40.1257 4.56865 40.1257 4.75254V7.38732H41.4668C41.6786 7.38732 41.6786 7.66136 41.4668 7.66136H40.1257V12.3052C40.1257 12.9983 40.7454 13.563 41.5563 13.563C41.767 13.563 41.767 13.8366 41.5563 13.8366C40.5605 13.8366 39.8085 13.1558 39.8085 12.3052Z" fill="black"/>
<path d="M41.5562 13.9698C40.5037 13.9698 39.6815 13.2377 39.6815 12.3052V7.79543H38.9928C38.8013 7.79543 38.6982 7.65651 38.6982 7.52503C38.6982 7.39486 38.8013 7.25624 38.9928 7.25624H39.6815V4.7525C39.6815 4.59982 39.8055 4.48328 39.968 4.48328C40.126 4.48328 40.2504 4.59989 40.2504 4.7525V7.25624H41.4666C41.6564 7.25624 41.7556 7.39486 41.7556 7.52503C41.7556 7.65651 41.6564 7.79543 41.4666 7.79543H40.2504V12.3052C40.2504 12.9369 40.8237 13.4311 41.5562 13.4311C41.7443 13.4311 41.8444 13.5693 41.8444 13.6989C41.8445 13.8317 41.7444 13.9698 41.5562 13.9698ZM38.9529 7.52693C38.9593 7.52693 38.9673 7.53167 38.9928 7.53167H39.9331V12.3051C39.9331 13.0913 40.6505 13.7066 41.5562 13.7066C41.5806 13.7066 41.5906 13.7001 41.5927 13.6984C41.5907 13.6984 41.5806 13.6945 41.5562 13.6945C40.6833 13.6945 39.9979 13.0825 39.9979 12.3051V7.53174H41.4666C41.4917 7.53174 41.4981 7.52569 41.4981 7.52569C41.4981 7.52569 41.4917 7.51964 41.4666 7.51964H39.9979V4.7525C39.9966 4.75061 39.9363 4.75017 39.9312 4.75447L39.9331 7.51957H38.9928C38.9647 7.51957 38.9567 7.52394 38.9516 7.52693H38.9529Z" fill="black"/>
</g>
<defs>
<clipPath id="clip0_222_111">
<rect width="45.2506" height="20.4071" fill="white" transform="translate(0.330078 0.400635)"/>
</clipPath>
</defs>
</svg>
