<svg width="109" height="15" viewBox="0 0 109 15" fill="none" xmlns="http://www.w3.org/2000/svg">
<g clip-path="url(#clip0_222_97)">
<path fill-rule="evenodd" clip-rule="evenodd" d="M19.205 5.77775H16.9377V4.63239H22.7886V5.77775H20.5214V12.0044H19.205V5.77775ZM26.7797 4.63239H31.6798V5.77775H28.0962V7.65198H31.4918V8.75569H28.0962V10.8382H31.8679V12.0044H26.7797V4.63239ZM36.2874 4.63239H38.3456L40.268 9.86981H40.2994L42.2009 4.63239H44.2696V12.0044H42.9636V6.07971H42.9427L40.6964 12.0044H39.777L37.562 6.07971H37.5411V12.0044H36.2874V4.63239ZM49.0339 4.63239H51.4474C51.8723 4.63239 52.2553 4.67056 52.5966 4.74692C52.9379 4.82328 53.2305 4.94823 53.4743 5.12177C53.7181 5.29531 53.9061 5.51744 54.0385 5.78816C54.1708 6.05888 54.237 6.38513 54.237 6.76692C54.237 7.17648 54.1604 7.52008 54.0071 7.79775C53.8539 8.07541 53.6467 8.29928 53.3855 8.46935C53.1243 8.63942 52.8195 8.76263 52.4713 8.83899C52.123 8.91535 51.7538 8.95352 51.3638 8.95352H50.3503V12.0044H49.0339V4.63239ZM51.2697 7.84981C51.4857 7.84981 51.6912 7.83419 51.8862 7.80296C52.0812 7.77172 52.2553 7.71619 52.4086 7.63636C52.5618 7.55653 52.6837 7.4472 52.7743 7.30837C52.8648 7.16953 52.9101 6.98906 52.9101 6.76692C52.9101 6.55173 52.8648 6.37646 52.7743 6.2411C52.6837 6.10574 52.5636 5.99988 52.4138 5.92352C52.264 5.84716 52.0934 5.79684 51.9019 5.77254C51.7103 5.74825 51.5135 5.7361 51.3115 5.7361H50.3503V7.84981H51.2697ZM58.5415 4.63239H59.858V10.8382H63.0028V12.0044H58.5415V4.63239ZM69.3343 4.63239H70.4731L73.6597 12.0044H72.1552L71.4657 10.3175H68.2581L67.5895 12.0044H66.1163L69.3343 4.63239ZM71.006 9.19301L69.8671 6.19424L68.7074 9.19301H71.006ZM77.5255 4.63239H80.0957C80.444 4.63239 80.7818 4.66883 81.1091 4.74172C81.4365 4.8146 81.7273 4.93434 81.9815 5.10094C82.2358 5.26754 82.4395 5.4862 82.5927 5.75692C82.746 6.02765 82.8226 6.35737 82.8226 6.7461C82.8226 7.2806 82.6711 7.71618 82.3681 8.05285C82.0651 8.38952 81.6524 8.61686 81.13 8.73486L83.1047 12.0044H81.5166L79.8031 8.88064H78.8419V12.0044H77.5255V4.63239ZM79.9181 7.80816C80.1061 7.80816 80.2942 7.79428 80.4823 7.76651C80.6703 7.73875 80.8392 7.68668 80.989 7.61033C81.1387 7.53397 81.2624 7.42464 81.3599 7.28234C81.4574 7.14003 81.5062 6.95782 81.5062 6.73569C81.5062 6.53438 81.4609 6.36952 81.3703 6.2411C81.2798 6.11268 81.1649 6.01029 81.0256 5.93393C80.8862 5.85757 80.7278 5.80551 80.5502 5.77775C80.3726 5.74998 80.2002 5.7361 80.033 5.7361H78.8419V7.80816H79.9181ZM87.2316 4.63239H90.1153C90.3939 4.63239 90.669 4.66536 90.9407 4.7313C91.2123 4.79725 91.4544 4.90484 91.6668 5.05409C91.8792 5.20333 92.0516 5.39596 92.184 5.63197C92.3163 5.86799 92.3825 6.15259 92.3825 6.48579C92.3825 6.90229 92.2641 7.24589 92.0273 7.51661C91.7904 7.78734 91.4805 7.9817 91.0974 8.09971V8.12053C91.5641 8.18301 91.9472 8.36349 92.2467 8.66198C92.5462 8.96047 92.6959 9.3596 92.6959 9.8594C92.6959 10.262 92.6158 10.6004 92.4556 10.8746C92.2954 11.1488 92.0847 11.3692 91.8235 11.5358C91.5623 11.7024 91.2628 11.8221 90.925 11.895C90.5872 11.9679 90.2441 12.0044 89.8959 12.0044H87.2316V4.63239ZM88.5481 7.63115H89.7183C90.1571 7.63115 90.4914 7.54438 90.7213 7.37084C90.9511 7.1973 91.066 6.95088 91.066 6.63156C91.066 6.29836 90.9476 6.06235 90.7108 5.92352C90.474 5.78469 90.1048 5.71527 89.6033 5.71527H88.5481V7.63115ZM88.5481 10.9006H89.7287C89.8959 10.9006 90.077 10.8885 90.272 10.8642C90.467 10.8399 90.6464 10.7896 90.8101 10.7132C90.9737 10.6369 91.1096 10.5258 91.2175 10.38C91.3255 10.2342 91.3795 10.0399 91.3795 9.79693C91.3795 9.4082 91.2471 9.13748 90.9825 8.98476C90.7178 8.83205 90.3173 8.75569 89.7809 8.75569H88.5481V10.9006ZM97.1259 4.63239H98.4423V12.0044H97.1259V4.63239ZM104.701 5.77775H102.433V4.63239H108.284V5.77775H106.017V12.0044H104.701V5.77775Z" fill="black"/>
<path d="M3.36558 6.33032C3.36558 6.30101 3.38975 6.27725 3.41838 6.27725H8.01436C8.04352 6.27725 8.06716 6.30096 8.06716 6.33032V7.26543C8.06716 7.29473 8.04298 7.31849 8.01436 7.31849H3.41838C3.38922 7.31849 3.36558 7.29479 3.36558 7.26543V6.33032ZM10.0318 4.12919C10.1934 4.12919 10.32 4.21638 10.3924 4.33896C10.4306 4.40352 10.4511 4.47139 10.4632 4.54798C10.479 4.64851 10.4801 4.77317 10.4696 4.92712C10.4508 5.20298 10.393 5.58405 10.3021 6.03412C10.1064 7.00309 9.78078 8.18704 9.394 9.29606C8.93718 10.6059 8.42119 11.7459 7.87683 12.5885C7.20312 13.6313 6.49132 14.2195 5.71637 14.2195C4.94143 14.2195 4.22958 13.6313 3.55579 12.5885C3.01135 11.7459 2.49526 10.6059 2.0384 9.29607C1.65153 8.18695 1.32592 7.00296 1.13028 6.03411C1.03939 5.58398 0.981553 5.2029 0.962842 4.92703C0.952398 4.77304 0.953564 4.64833 0.969434 4.54776C0.981527 4.47112 1.00214 4.40321 1.04041 4.33863C1.11296 4.2162 1.23954 4.12919 1.40091 4.12919H2.6942C2.72899 4.09714 2.77441 4.04502 2.82669 3.97531C2.94606 3.81615 3.0891 3.58243 3.24856 3.28877C3.33727 3.1254 3.42995 2.94557 3.5256 2.75204C3.69428 2.41075 3.86392 2.04405 4.02588 1.67722C4.08261 1.54873 4.13429 1.42946 4.17989 1.32254C4.1958 1.28522 4.20981 1.25215 4.22176 1.2237C4.29366 1.05079 4.42975 0.960205 4.58072 0.960205H6.85202C7.00302 0.960205 7.13913 1.05082 7.19675 1.18973C7.22295 1.25222 7.23694 1.2853 7.25284 1.32262C7.29841 1.42954 7.35006 1.5488 7.40676 1.67729C7.56863 2.04411 7.73818 2.4108 7.90681 2.75208C8.00275 2.94623 8.09569 3.12659 8.18465 3.29037C8.3439 3.58356 8.48676 3.81687 8.60601 3.97571C8.65822 4.04526 8.70357 4.09724 8.73831 4.12919H10.0318ZM8.66905 4.87153C8.41382 4.87153 8.2273 4.71155 8.00844 4.42001C7.86355 4.227 7.7035 3.96563 7.52846 3.64336C7.43463 3.47061 7.33738 3.2819 7.23745 3.07965C7.06355 2.72771 6.88967 2.35167 6.72379 1.97577C6.6812 1.87925 6.64137 1.78777 6.6047 1.70254H4.82797C4.79127 1.78779 4.75141 1.87929 4.70879 1.97583C4.54283 2.35173 4.36887 2.72776 4.19493 3.07969C4.0953 3.28127 3.99834 3.46941 3.90479 3.64169C3.72958 3.96436 3.5694 4.22608 3.42446 4.41934C3.20541 4.7114 3.01902 4.87153 2.76368 4.87153H1.7067C1.72324 5.11549 1.77656 5.46682 1.86158 5.88786C2.05051 6.82352 2.3672 7.97505 2.74307 9.05263C3.68065 11.7406 4.80275 13.4772 5.71637 13.4772C6.62996 13.4772 7.75183 11.7407 8.68932 9.05265C9.06511 7.97516 9.38177 6.82364 9.57078 5.88784C9.65581 5.4668 9.70918 5.11545 9.72541 4.87694C9.72553 4.87513 8.66905 4.87153 8.66905 4.87153Z" fill="url(#paint0_linear_222_97)"/>
</g>
<defs>
<linearGradient id="paint0_linear_222_97" x1="476.977" y1="0.960205" x2="476.977" y2="1326.89" gradientUnits="userSpaceOnUse">
<stop stop-color="#EF2646"/>
<stop offset="1" stop-color="#FD546B"/>
</linearGradient>
<clipPath id="clip0_222_97">
<rect width="107.359" height="13.309" fill="white" transform="translate(0.956299 0.924561)"/>
</clipPath>
</defs>
</svg>
