<svg width="110" height="42" viewBox="0 0 110 42" fill="none" xmlns="http://www.w3.org/2000/svg">
<path fill-rule="evenodd" clip-rule="evenodd" d="M20.9712 7.80497C22.7275 7.80497 24.8192 7.98448 25.4507 8.30362C25.4507 8.78233 25.4507 10.398 25.4507 10.5575C25.4507 12.8314 26.7334 13.1505 26.7334 13.1505C26.7334 13.1505 26.7334 14.1279 26.7334 15.2449C26.7334 16.7009 26.4177 17.6783 26.4177 17.6783C25.7664 17.8379 24.168 18.3166 22.4117 19.6131C21.129 20.5904 20.0042 22.0465 20.0042 23.5026C20.0042 24.46 20.1621 25.1182 20.4976 25.7565C20.4976 25.7565 19.8464 26.0756 18.7216 26.0756C17.3007 25.916 15.7023 24.7791 14.7354 23.0039C13.4527 20.75 12.8212 17.9974 11.3806 17.9974C9.94011 17.9974 9.94011 19.4535 8.81527 19.4535C7.53258 19.4535 6.74321 17.3592 6.42748 16.3818C5.61842 14.9257 3.70427 14.447 3.54639 12.1732H9.62431C9.62431 8.78233 9.62431 6.84756 9.62431 3.45673C11.8542 3.45673 13.1369 3.45673 15.3668 3.45673V7.1667C15.5444 7.32626 16.0181 7.48583 16.6495 7.6454L16.018 10.5575H14.2617L13.6105 13.1505H15.3668L14.7354 16.3818C14.7354 16.8605 14.5775 17.9974 14.7354 18.4761C15.0511 19.7726 15.8602 20.2513 16.9653 20.2513C18.5637 20.2513 20.0042 19.4535 20.0042 19.4535L20.6555 17.3592C20.3397 17.3592 19.8463 17.3592 19.5306 17.3592C19.2149 17.3592 18.8991 17.3591 19.057 16.5414L19.8463 13.1505H21.6027L22.2539 10.5575H20.4976L20.9712 7.80497Z" fill="#BE372F"/>
<path fill-rule="evenodd" clip-rule="evenodd" d="M17.4584 8.78233H19.6883L17.932 17.1996H15.7021L17.4584 8.78233Z" fill="#BE372F"/>
<path fill-rule="evenodd" clip-rule="evenodd" d="M19.0569 5.71063C19.6884 5.71063 20.3396 6.18934 20.3396 7.00713C20.3396 7.64541 19.6884 8.14407 19.0569 8.14407C18.4057 8.14407 17.7742 7.64541 17.7742 7.00713C17.7742 6.18934 18.4057 5.71063 19.0569 5.71063Z" fill="#BE372F"/>
<path fill-rule="evenodd" clip-rule="evenodd" d="M74.7058 16.0627C75.9885 16.0627 76.7778 16.2222 76.9357 16.3818C77.2515 16.3818 77.0936 16.2222 77.2515 16.0627H77.429L78.2184 18.3166L77.9027 18.4761C77.429 17.8379 76.4621 17.1996 74.8637 17.1996C74.2322 17.1996 72.9495 17.3592 72.9495 18.3166C72.9495 20.2513 78.8696 19.1344 78.8696 23.0039C78.8696 24.7791 77.429 26.0756 74.7058 26.0756C73.7389 26.0756 72.9495 25.916 72.1405 25.5969C71.9826 25.5969 71.8247 25.7565 71.8247 25.916L71.5089 26.0756L70.542 23.1635L70.8578 23.0039C71.6669 23.9813 72.7916 24.7791 74.7058 24.7791C76.3043 24.7791 76.7778 24.1408 76.7778 23.5025C76.7778 21.2287 71.0156 22.6848 71.0156 18.7953C71.0156 17.0201 72.7916 16.0627 74.7058 16.0627Z" fill="#0F0E0C"/>
<path fill-rule="evenodd" clip-rule="evenodd" d="M41.4348 25.916V25.5969C42.086 25.4373 42.4018 25.2778 42.4018 24.3004V17.6783C42.4018 16.7009 42.086 16.5414 41.4348 16.3818V16.0627H48.9533L49.7624 18.157L49.4466 18.3166C48.7954 17.5187 48.164 17.3592 47.0392 17.3592C46.8813 17.3592 45.2829 17.3592 45.2829 17.3592C44.6316 17.3592 44.4738 17.5187 44.4738 17.9974V20.0918H47.0392C48.0061 20.0918 48.164 19.9322 48.3219 19.4535H48.6376V22.0465H48.3219C48.164 21.5478 48.0061 21.3883 47.0392 21.3883H44.4738V23.9813C44.4738 24.6195 44.6316 24.6195 45.2829 24.6195C45.2829 24.6195 47.3549 24.6195 47.5127 24.6195C48.4797 24.6195 49.2691 24.6195 50.0781 23.6621L50.236 23.8217L49.6045 25.916H41.4348Z" fill="#0F0E0C"/>
<path fill-rule="evenodd" clip-rule="evenodd" d="M39.047 24.3004C39.047 25.2778 39.3628 25.4373 39.8364 25.5969V25.916H35.6923V25.5969C36.1659 25.4373 36.6396 25.2778 36.6396 24.3004V14.9257C36.6396 14.447 36.3238 14.447 35.6923 14.447C33.6006 14.447 32.8112 14.447 32.0021 15.2449H31.8442L32.6534 12.991H43.0332L43.8423 15.2449H43.5266C42.8753 14.447 41.9281 14.447 39.8364 14.447C39.2049 14.447 39.047 14.447 39.047 14.9257V24.3004Z" fill="#0F0E0C"/>
<path fill-rule="evenodd" clip-rule="evenodd" d="M54.3999 21.0691L51.6766 17.5187C51.203 16.7009 50.8676 16.5414 50.2361 16.3818V16.0627H54.7156V16.3818C54.242 16.3818 53.9066 16.8605 54.3999 17.5187L55.6628 19.4535L57.281 17.3592C57.5967 16.8605 57.5967 16.3818 56.9455 16.3818V16.0627H60.6357V16.3818C59.9845 16.5414 59.5108 16.7009 58.8794 17.3592L56.6298 20.5904L59.353 24.46C59.6688 24.9387 59.9845 25.2778 59.9845 25.2778C59.9845 25.2778 60.4778 25.1182 61.1093 23.5025L64.1483 16.0627H66.0624L69.5948 24.46C69.7526 24.9387 70.2262 25.4373 70.6998 25.5969V25.916H66.5558V25.5969C66.8715 25.5969 67.503 25.4373 67.0294 24.46L66.5558 23.1635H62.5498L62.0762 24.46C61.5829 25.4373 62.3919 25.5969 62.5498 25.5969V25.916H56.314V25.5969C56.6298 25.5969 57.4389 25.2778 56.7877 24.46L55.1892 22.3656L53.5908 24.6195C53.1172 25.2778 53.5908 25.5969 53.9065 25.5969V25.916H50.2361V25.5969C50.8676 25.4373 51.5188 25.1182 51.9923 24.3004L54.3999 21.0691ZM64.6219 17.9974L63.0235 21.8869H66.0624L64.6219 17.9974Z" fill="#0F0E0C"/>
<path fill-rule="evenodd" clip-rule="evenodd" d="M4.33564 27.3721C4.33564 26.3947 3.862 26.2352 3.38843 26.0756V25.916H7.53248V26.0756C7.21675 26.2352 6.7431 26.3947 6.7431 27.3721V37.2255C6.7431 38.2028 7.21675 38.3624 7.53248 38.522V38.8411H3.38843V38.522C3.862 38.3624 4.33564 38.2028 4.33564 37.2255V27.3721Z" fill="#0F0E0C"/>
<path fill-rule="evenodd" clip-rule="evenodd" d="M17.6163 38.8411H17.3006L10.7293 31.8999V37.2255C10.7293 38.2028 11.2227 38.3624 11.5384 38.522V38.8411H8.65723V38.522C9.13086 38.3624 9.4466 38.2028 9.4466 37.2255V30.6034C9.4466 29.626 9.13086 29.4664 8.65723 29.3069V28.9877H11.3805L16.3336 34.4928V30.6034C16.3336 29.626 16.0179 29.4664 15.5443 29.3069V28.9877H18.5635V29.3069C18.09 29.4664 17.6163 29.626 17.6163 30.6034V38.8411Z" fill="#0F0E0C"/>
<path fill-rule="evenodd" clip-rule="evenodd" d="M55.5049 35.4503C55.5049 38.3624 52.9593 39.0007 51.3608 39.0007C49.6046 39.0007 47.0392 38.3624 47.0392 35.6098V30.6034C47.0392 29.626 46.5656 29.3069 46.0723 29.3069V28.9877H50.0782V29.3069C49.6046 29.3069 49.1112 29.626 49.1112 30.6034V35.4503C49.1112 37.0659 50.0782 37.7241 51.6766 37.7241C53.1172 37.7241 54.2419 37.0659 54.2419 35.4503V30.6034C54.2419 29.626 53.7486 29.4664 53.275 29.3069V28.9877H56.314V29.3069C55.8404 29.4664 55.5049 29.626 55.5049 30.6034V35.4503Z" fill="#0F0E0C"/>
<path fill-rule="evenodd" clip-rule="evenodd" d="M30.5616 30.9225C30.5616 30.2842 30.5616 30.2842 30.0881 30.2842C28.4896 30.2842 28.1738 30.2842 27.207 31.4212L27.0491 31.2616L27.6805 28.9877H35.6924L36.4817 31.2616L36.166 31.4212C35.357 30.2842 35.0412 30.2842 33.4427 30.2842C32.9692 30.2842 32.8113 30.2842 32.8113 30.9225V37.2255C32.8113 38.2028 33.127 38.3624 33.7585 38.522V38.8411H29.7723V38.522C30.4038 38.3624 30.5616 38.2028 30.5616 37.2255V30.9225Z" fill="#0F0E0C"/>
<path fill-rule="evenodd" clip-rule="evenodd" d="M23.2208 28.8282C24.3259 28.8282 25.135 29.1473 25.2928 29.1473C25.6086 29.3069 25.6086 28.9877 25.6086 28.9877L25.9244 28.8282L26.5755 31.2616H26.2401C25.7665 30.7629 24.9771 30.1247 23.3787 30.1247C22.5696 30.1247 21.2869 30.2842 21.2869 31.2616C21.2869 33.0368 27.3649 32.0594 27.3649 35.929C27.3649 37.7241 25.9244 38.8411 23.2208 38.8411C22.096 38.8411 21.2869 38.6815 20.4976 38.522C20.3397 38.522 20.3397 38.6815 20.1621 38.6815C20.1621 38.8411 19.8464 38.8411 19.8464 38.8411L18.8992 36.1085L19.2149 35.929C20.0043 36.9063 21.1291 37.7241 23.0432 37.7241C24.6417 37.7241 25.135 37.0659 25.135 36.4276C25.135 34.1538 19.3728 35.6098 19.3728 31.7403C19.3728 29.9651 21.2869 28.8282 23.2208 28.8282Z" fill="#0F0E0C"/>
<path fill-rule="evenodd" clip-rule="evenodd" d="M68.47 37.2255C68.47 38.2028 68.9436 38.3624 69.4172 38.522V38.8411H65.431V38.522C65.9047 38.3624 66.3782 38.2028 66.3782 37.2255V32.5381L62.8656 39.0007H62.5499L59.0374 32.3786V37.2255C59.0374 38.2028 59.5109 38.3624 59.9846 38.522V38.8411H56.9456V38.522C57.281 38.3624 57.7547 38.2028 57.7547 37.2255V30.6034C57.7547 29.626 57.281 29.4664 56.9456 29.3069V28.9877H59.9846L63.1814 35.4503L66.7137 28.9877H69.4172V29.3069C68.9436 29.4664 68.47 29.626 68.47 30.6034V37.2255Z" fill="#0F0E0C"/>
<path fill-rule="evenodd" clip-rule="evenodd" d="M88.6179 38.8411H88.3022L81.7309 31.8999V37.2255C81.7309 38.2028 82.2242 38.3624 82.54 38.522V38.8411H79.501V38.522C79.9746 38.3624 80.4679 38.2028 80.4679 37.2255V30.6034C80.4679 29.626 80.1324 29.4664 79.501 29.3069V28.9877H82.3821L87.3352 34.4928V30.6034C87.3352 29.626 86.8616 29.4664 86.3683 29.3069V28.9877H89.427V29.3069C89.0915 29.4664 88.6179 29.626 88.6179 30.6034V38.8411Z" fill="#0F0E0C"/>
<path fill-rule="evenodd" clip-rule="evenodd" d="M70.542 38.8411V38.522C71.0156 38.3624 71.3511 38.0433 71.3511 37.2255V30.6034C71.3511 29.626 71.0156 29.4664 70.542 29.3069V28.9877H78.0605L78.7117 31.0821L78.5341 31.2616C77.9027 30.4438 77.0936 30.2842 76.1464 30.2842C75.9885 30.2842 74.2322 30.2842 74.2322 30.2842C73.7389 30.2842 73.581 30.4438 73.581 30.9225V33.0368H75.9885C76.9357 33.0368 77.2515 32.6977 77.2515 32.3786H77.5869V34.9716H77.2515C77.2515 34.4929 76.9357 34.3333 75.9885 34.3333H73.581V36.9063C73.581 37.405 73.7389 37.5646 74.2322 37.5646C74.2322 37.5646 76.3043 37.5646 76.4621 37.5646C77.429 37.5646 78.3762 37.5645 79.0275 36.5872L79.3432 36.7468L78.5341 38.8411H70.542Z" fill="#0F0E0C"/>
<path fill-rule="evenodd" clip-rule="evenodd" d="M93.0975 30.9225C93.0975 30.2842 92.9397 30.2842 92.6042 30.2842C90.8479 30.2842 90.69 30.2842 89.7428 31.4212L89.5652 31.2616L90.2164 28.9877H98.2085L99.0176 31.2616L98.7019 31.4212C97.8928 30.2842 97.577 30.2842 95.9786 30.2842C95.4853 30.2842 95.3274 30.2842 95.3274 30.9225V37.2255C95.3274 38.2028 95.6431 38.3624 96.2943 38.522V38.8411H92.2885V38.522C92.7818 38.3624 93.0975 38.2028 93.0975 37.2255V30.9225Z" fill="#0F0E0C"/>
<path fill-rule="evenodd" clip-rule="evenodd" d="M103.162 28.8282C104.286 28.8282 105.095 29.1473 105.411 29.1473C105.569 29.3069 105.569 28.9877 105.569 28.9877C105.727 28.9877 105.885 28.8282 105.885 28.8282L106.516 31.2616H106.358C105.885 30.7629 104.918 30.1247 103.339 30.1247C102.53 30.1247 101.405 30.2842 101.405 31.2616C101.405 33.0368 107.325 32.0594 107.325 35.929C107.325 37.7241 105.885 38.8411 103.162 38.8411C102.057 38.8411 101.247 38.6815 100.458 38.522C100.3 38.522 100.3 38.6815 100.3 38.6815C100.123 38.8411 99.9647 38.8411 99.9647 38.8411L98.8596 36.1085L99.1753 35.929C99.9647 36.9063 101.247 37.7241 103.004 37.7241C104.602 37.7241 105.095 37.0659 105.095 36.4276C105.095 34.1538 99.3332 35.6098 99.3332 31.7403C99.3332 29.9651 101.247 28.8282 103.162 28.8282Z" fill="#0F0E0C"/>
<path fill-rule="evenodd" clip-rule="evenodd" d="M41.7506 28.9877C43.8423 28.9877 45.4408 29.8055 45.4408 31.5807C45.4408 33.5155 43.6845 33.8346 42.7175 33.9942C45.2829 34.9716 45.4408 38.3624 47.0392 38.3624V38.522C46.7235 38.6815 46.4077 38.8411 45.5986 38.8411C42.086 38.8411 42.8753 34.4928 40.6455 34.4928H39.5207V37.2255C39.5207 38.2028 39.8364 38.3624 40.3297 38.522V38.8411H36.4817V38.522C36.9553 38.3624 37.2907 38.2028 37.2907 37.2255V30.6034C37.2907 29.626 36.9553 29.4664 36.4817 29.3069V28.9877H41.7506ZM39.5207 33.3559H40.8034C41.9281 33.3559 43.1911 32.8772 43.1911 31.7403C43.1911 31.0821 42.7175 30.1247 41.2769 30.1247H40.1719C39.6785 30.1247 39.5207 30.2842 39.5207 30.9225V33.3559Z" fill="#0F0E0C"/>
</svg>
