<svg width="1200" height="995" viewBox="0 0 1200 995" fill="none" xmlns="http://www.w3.org/2000/svg">
<path fill-rule="evenodd" clip-rule="evenodd" d="M100 128.571C44.7715 128.571 0 173.342 0 228.571V548.571H437.144V530C437.144 502.386 459.53 480 487.144 480H704.287C731.901 480 754.287 502.386 754.287 530V548.571H1200V228.571C1200 173.342 1155.23 128.571 1100 128.571H100Z" fill="black"/>
<path fill-rule="evenodd" clip-rule="evenodd" d="M437.144 574.286H0V894.286C0 949.515 44.7715 994.286 100 994.286H1100C1155.23 994.286 1200 949.515 1200 894.286V574.286H754.287V584.285C754.287 611.9 731.901 634.285 704.287 634.285H487.144C459.53 634.285 437.144 611.9 437.144 584.285V574.286Z" fill="black"/>
<path fill-rule="evenodd" clip-rule="evenodd" d="M428.5 0L428.537 1.98792e-05L428.575 0H771.432C771.443 0 771.455 5.4918e-06 771.466 1.64729e-05C771.477 5.4954e-06 771.489 0 771.5 0C790.554 0 806 15.4462 806 34.5V135.5C806 154.554 790.554 170 771.5 170C752.446 170 737 154.554 737 135.5V68.5714H463V135.5C463 154.554 447.554 170 428.5 170C409.446 170 394 154.554 394 135.5V34.5C394 15.4462 409.446 0 428.5 0Z" fill="black"/>
</svg>
