<svg width="88" height="70" viewBox="0 0 88 70" fill="none" xmlns="http://www.w3.org/2000/svg">
<path d="M70.3388 26.1861L69.2147 28.1478C68.8034 28.8749 67.9261 29.1767 67.1447 28.8886C65.5271 28.285 64.0466 27.4208 62.7443 26.337C62.1137 25.8157 61.9492 24.8966 62.3605 24.1833L63.4846 22.2216C62.5387 21.1242 61.7984 19.8484 61.3049 18.4628H59.043C58.2205 18.4628 57.5077 17.873 57.3706 17.0499C57.0964 15.4037 57.0827 13.6752 57.3706 11.9605C57.5077 11.1374 58.2205 10.5338 59.043 10.5338H61.3049C61.7984 9.14827 62.5387 7.87248 63.4846 6.77504L62.3605 4.81335C61.9492 4.10001 62.1 3.1809 62.7443 2.65961C64.0466 1.57588 65.5408 0.711642 67.1447 0.108046C67.9261 -0.180034 68.8034 0.121764 69.2147 0.848823L70.3388 2.81051C71.7782 2.54987 73.245 2.54987 74.6844 2.81051L75.8085 0.848823C76.2197 0.121764 77.097 -0.180034 77.8784 0.108046C79.496 0.711642 80.9765 1.57588 82.2788 2.65961C82.9094 3.1809 83.0739 4.10001 82.6627 4.81335L81.5386 6.77504C82.4845 7.87248 83.2247 9.14827 83.7182 10.5338H85.9801C86.8026 10.5338 87.5155 11.1237 87.6526 11.9468C87.9267 13.5929 87.9404 15.3214 87.6526 17.0362C87.5155 17.8593 86.8026 18.4628 85.9801 18.4628H83.7182C83.2247 19.8484 82.4845 21.1242 81.5386 22.2216L82.6627 24.1833C83.0739 24.8966 82.9231 25.8157 82.2788 26.337C80.9765 27.4208 79.4823 28.285 77.8784 28.8886C77.097 29.1767 76.2197 28.8749 75.8085 28.1478L74.6844 26.1861C73.2587 26.4468 71.7782 26.4468 70.3388 26.1861ZM68.8994 18.1199C74.1771 22.1804 80.1952 16.1582 76.1375 10.8767C70.8597 6.80247 64.8417 12.8384 68.8994 18.1199ZM53.0935 39.232L57.7133 41.5367C59.0978 42.3323 59.701 44.0196 59.1527 45.5286C57.9326 48.8484 55.5336 51.8938 53.3129 54.5551C52.2984 55.776 50.5438 56.0778 49.1592 55.2822L45.1701 52.9775C42.9767 54.8569 40.4269 56.3522 37.6441 57.3262V61.9355C37.6441 63.5268 36.5063 64.8986 34.9435 65.1729C31.5713 65.7491 28.0345 65.7765 24.5388 65.1729C22.9623 64.8986 21.7971 63.5405 21.7971 61.9355V57.3262C19.0143 56.3385 16.4645 54.8569 14.2712 52.9775L10.282 55.2685C8.91118 56.0641 7.14278 55.7623 6.12836 54.5414C3.90759 51.8801 1.56344 48.8347 0.343389 45.5286C-0.20495 44.0334 0.398222 42.346 1.78278 41.5367L6.34769 39.232C5.81306 36.3649 5.81306 33.4156 6.34769 30.5348L1.78278 28.2164C0.398222 27.4208 -0.218658 25.7334 0.343389 24.2382C1.56344 20.9184 3.90759 17.873 6.12836 15.2117C7.14278 13.9907 8.89747 13.689 10.282 14.4846L14.2712 16.7892C16.4645 14.9099 19.0143 13.4146 21.7971 12.4406V7.81761C21.7971 6.24003 22.9212 4.86822 24.484 4.59386C27.8563 4.0177 31.4068 3.99026 34.9024 4.58014C36.4789 4.8545 37.6441 6.21259 37.6441 7.81761V12.4269C40.4269 13.4146 42.9767 14.8961 45.1701 16.7755L49.1592 14.4709C50.5301 13.6752 52.2984 13.977 53.3129 15.1979C55.5336 17.8593 57.8641 20.9047 59.0841 24.2244C59.6325 25.7197 59.0978 27.407 57.7133 28.2164L53.0935 30.521C53.6282 33.4018 53.6282 36.3512 53.0935 39.232ZM36.9724 42.1265C45.0878 31.5636 33.0381 19.5054 22.4825 27.6265C14.3671 38.1895 26.4169 50.2477 36.9724 42.1265ZM70.3388 67.1895L69.2147 69.1512C68.8034 69.8782 67.9261 70.18 67.1447 69.892C65.5271 69.2884 64.0466 68.4241 62.7443 67.3404C62.1137 66.8191 61.9492 65.9 62.3605 65.1866L63.4846 63.225C62.5387 62.1275 61.7984 60.8517 61.3049 59.4662H59.043C58.2205 59.4662 57.5077 58.8763 57.3706 58.0532C57.0964 56.4071 57.0827 54.6786 57.3706 52.9638C57.5077 52.1407 58.2205 51.5371 59.043 51.5371H61.3049C61.7984 50.1516 62.5387 48.8758 63.4846 47.7784L62.3605 45.8167C61.9492 45.1034 62.1 44.1843 62.7443 43.663C64.0466 42.5792 65.5408 41.715 67.1447 41.1114C67.9261 40.8233 68.8034 41.1251 69.2147 41.8522L70.3388 43.8139C71.7782 43.5532 73.245 43.5532 74.6844 43.8139L75.8085 41.8522C76.2197 41.1251 77.097 40.8233 77.8784 41.1114C79.496 41.715 80.9765 42.5792 82.2788 43.663C82.9094 44.1843 83.0739 45.1034 82.6627 45.8167L81.5386 47.7784C82.4845 48.8758 83.2247 50.1516 83.7182 51.5371H85.9801C86.8026 51.5371 87.5155 52.127 87.6526 52.9501C87.9267 54.5963 87.9404 56.3248 87.6526 58.0395C87.5155 58.8626 86.8026 59.4662 85.9801 59.4662H83.7182C83.2247 60.8517 82.4845 62.1275 81.5386 63.225L82.6627 65.1866C83.0739 65.9 82.9231 66.8191 82.2788 67.3404C80.9765 68.4241 79.4823 69.2884 77.8784 69.892C77.097 70.18 76.2197 69.8782 75.8085 69.1512L74.6844 67.1895C73.2587 67.4501 71.7782 67.4501 70.3388 67.1895ZM68.8994 59.1095C74.1771 63.1701 80.1952 57.1479 76.1375 51.8664C70.8597 47.8058 64.8417 53.8281 68.8994 59.1095Z" fill="#233B92"/>
</svg>
