<svg width="1050" height="1100" viewBox="0 0 1050 1100" fill="none" xmlns="http://www.w3.org/2000/svg">
<path d="M606.888 326.823C596.338 313.273 599.294 293.649 613.366 283.808L628.044 273.543L644.567 261.543C658.403 251.494 677.826 255.025 687.24 269.3L1016.47 768.502C1024.27 780.325 1021.15 796.216 1009.46 804.214V804.214C998.138 811.959 982.747 809.56 974.321 798.738L606.888 326.823Z" fill="black"/>
<path d="M469.49 212.109C477.828 266.87 539.825 302.582 607.923 262.755C665.994 228.791 675.45 168.216 641.686 117.57C602.715 59.1127 491.64 5.76271 473.415 6.43944C478.311 9.09244 489.749 43.289 489.749 66.9237C489.749 100.688 461.804 161.62 469.49 212.109Z" fill="black"/>
<path fill-rule="evenodd" clip-rule="evenodd" d="M208.089 1063.73C170.873 1038.91 194.523 1014.2 220.042 987.545C244.602 961.891 270.893 934.427 246.326 903.309C225.861 877.386 191.58 894.561 154.501 913.137C112.107 934.377 66.0539 957.45 32.8088 920.032C-45.0933 832.354 19.2371 639.485 188.613 532.787C364.188 422.184 578.172 458.341 668.197 571.756C799.657 737.37 733.9 986.798 524.565 1063.73C359.072 1124.55 259.212 1097.82 208.089 1063.73ZM227.121 648.972C240.896 670.813 231.296 701.616 205.678 717.773C180.06 733.931 148.126 729.324 134.351 707.484C120.576 685.644 130.176 654.841 155.794 638.683C181.412 622.526 213.346 627.132 227.121 648.972ZM360.388 624.387C390.19 618.987 410.618 594.012 406.014 568.605C401.411 543.197 373.519 526.978 343.717 532.377C313.915 537.777 293.487 562.751 298.091 588.159C302.694 613.567 330.586 629.786 360.388 624.387ZM595.646 627.971C583.754 650.891 552.32 658.163 525.435 644.214C498.551 630.265 486.398 600.377 498.29 577.457C510.182 554.537 541.616 547.265 568.501 561.214C595.385 575.163 607.538 605.051 595.646 627.971ZM596.012 788.558C610.224 815.304 640.229 827.165 663.032 815.049C685.834 802.933 692.799 771.429 678.587 744.683C664.376 717.936 634.37 706.076 611.568 718.192C588.765 730.307 581.801 761.812 596.012 788.558Z" fill="black"/>
</svg>
