<svg width="50" height="70" viewBox="0 0 50 70" fill="none" xmlns="http://www.w3.org/2000/svg">
<path d="M14.0643 62.117C14.0656 62.9769 14.3201 63.8191 14.7975 64.5355L17.1354 68.0477C17.5348 68.6481 18.0765 69.1405 18.7123 69.4811C19.3481 69.8217 20.0583 70 20.7798 70H29.2216C29.943 70 30.6533 69.8217 31.2891 69.4811C31.9249 69.1405 32.4666 68.6481 32.866 68.0477L35.2039 64.5355C35.6811 63.819 35.9362 62.9777 35.9371 62.117L35.9426 56.8739H14.0574L14.0643 62.117ZM0.92334 24.0621C0.92334 30.1282 3.17369 35.6624 6.88232 39.8911C9.14224 42.4682 12.6771 47.852 14.0246 52.3937C14.0301 52.4293 14.0342 52.4648 14.0397 52.5004H35.9604C35.9658 52.4648 35.9699 52.4306 35.9754 52.3937C37.3229 47.852 40.8578 42.4682 43.1177 39.8911C46.8263 35.6624 49.0767 30.1282 49.0767 24.0621C49.0767 10.7473 38.2572 -0.0408982 24.9248 0.000116561C10.9699 0.0424985 0.92334 11.3434 0.92334 24.0621ZM25 13.1248C18.9658 13.1248 14.0561 18.0316 14.0561 24.0621C14.0561 25.2707 13.0766 26.2496 11.8673 26.2496C10.658 26.2496 9.67849 25.2707 9.67849 24.0621C9.67849 15.6185 16.5513 8.74993 25 8.74993C26.2093 8.74993 27.1888 9.72882 27.1888 10.9374C27.1888 12.146 26.2093 13.1248 25 13.1248Z" fill="#233B92"/>
</svg>
