<svg width="926" height="1200" viewBox="0 0 926 1200" fill="none" xmlns="http://www.w3.org/2000/svg">
<path fill-rule="evenodd" clip-rule="evenodd" d="M100 143.692C44.7715 143.692 0 188.464 0 243.692V1100C0 1155.23 44.7716 1200 100 1200H825.233C880.461 1200 925.233 1155.23 925.233 1100V243.692C925.233 188.464 880.461 143.692 825.233 143.692H100ZM134.113 252.335C106.498 252.335 84.1125 274.721 84.1125 302.335V1071.49C84.1125 1099.11 106.498 1121.49 134.113 1121.49H791.121C818.736 1121.49 841.121 1099.11 841.121 1071.49V302.335C841.121 274.721 818.735 252.335 791.121 252.335H134.113Z" fill="black"/>
<path fill-rule="evenodd" clip-rule="evenodd" d="M574.766 73.2476C574.766 74.5405 574.721 75.8255 574.633 77.1019H672.897V169.625H280.374V77.1019H378.638C378.55 75.8255 378.505 74.5405 378.505 73.2476C378.505 32.7941 407.771 -3.05175e-05 476.635 0C545.5 3.05176e-05 574.766 32.7941 574.766 73.2476ZM476.533 95.2617C490.082 95.2617 501.066 84.9057 501.066 72.1309C501.066 59.3561 490.082 49 476.533 49C462.984 49 452 59.3561 452 72.1309C452 84.9057 462.984 95.2617 476.533 95.2617Z" fill="black"/>
<rect x="357.23" y="446.963" width="370.093" height="38.5514" rx="19.2757" fill="black"/>
<rect x="357.23" y="647.43" width="370.093" height="38.5514" rx="19.2757" fill="black"/>
<rect x="357.23" y="847.896" width="370.093" height="38.5514" rx="19.2757" fill="black"/>
<path fill-rule="evenodd" clip-rule="evenodd" d="M209.915 408.411C193.347 408.411 179.915 421.843 179.915 438.411V501.776C179.915 518.344 193.347 531.776 209.915 531.776H273.28C289.848 531.776 303.28 518.344 303.28 501.776V438.411C303.28 421.843 289.848 408.411 273.28 408.411H209.915ZM225.478 428.972C211.671 428.972 200.478 440.165 200.478 453.972V486.215C200.478 500.022 211.671 511.215 225.478 511.215H257.721C271.528 511.215 282.721 500.022 282.721 486.215V453.972C282.721 440.165 271.528 428.972 257.721 428.972H225.478Z" fill="black"/>
<path fill-rule="evenodd" clip-rule="evenodd" d="M209.915 608.878C193.347 608.878 179.915 622.31 179.915 638.878V702.243C179.915 718.811 193.347 732.243 209.915 732.243H273.28C289.848 732.243 303.28 718.811 303.28 702.243V638.878C303.28 622.31 289.848 608.878 273.28 608.878H209.915ZM225.478 629.438C211.671 629.438 200.478 640.631 200.478 654.438V686.681C200.478 700.488 211.671 711.681 225.478 711.681H257.721C271.528 711.681 282.721 700.488 282.721 686.681V654.438C282.721 640.631 271.528 629.438 257.721 629.438H225.478Z" fill="black"/>
<path fill-rule="evenodd" clip-rule="evenodd" d="M209.915 809.345C193.347 809.345 179.915 822.777 179.915 839.345V902.71C179.915 919.278 193.347 932.71 209.915 932.71H273.28C289.848 932.71 303.28 919.278 303.28 902.71V839.345C303.28 822.777 289.848 809.345 273.28 809.345H209.915ZM225.478 829.906C211.671 829.906 200.478 841.099 200.478 854.906V887.149C200.478 900.956 211.671 912.149 225.478 912.149H257.721C271.528 912.149 282.721 900.956 282.721 887.149V854.906C282.721 841.099 271.528 829.906 257.721 829.906H225.478Z" fill="black"/>
</svg>
