<svg width="1324" height="900" viewBox="0 0 1324 900" fill="none" xmlns="http://www.w3.org/2000/svg">
<path d="M179.091 267.161C179.091 244.896 193.813 225.314 215.201 219.129L748.532 64.9053C780.508 55.659 812.422 79.652 812.422 112.937L812.423 681.18C812.423 714.974 779.593 739.035 747.368 728.86L214.035 560.453C193.233 553.885 179.091 534.588 179.091 512.774L179.091 267.161Z" fill="black"/>
<rect x="742.548" y="806.036" width="806.071" height="139.795" rx="50" transform="rotate(-89.4643 742.548 806.036)" fill="black"/>
<rect y="263.105" width="355.961" height="247.625" rx="30" fill="black"/>
<path fill-rule="evenodd" clip-rule="evenodd" d="M406.327 403.086C380.744 392.69 351.578 405.002 341.182 430.584L259.54 631.498C249.145 657.081 261.456 686.247 287.039 696.643L462.051 767.759C487.634 778.155 516.8 765.843 527.195 740.261L608.837 539.347C619.233 513.764 606.921 484.598 581.339 474.202L406.327 403.086ZM432.264 446.152C414.868 439.083 395.035 447.455 387.966 464.851L322.345 626.339C315.276 643.735 323.648 663.568 341.044 670.637L445.979 713.278C463.376 720.347 483.209 711.975 490.278 694.579L555.899 533.091C562.968 515.695 554.596 495.862 537.199 488.793L432.264 446.152Z" fill="black"/>
<rect x="1060.13" y="371.442" width="263.102" height="46.4297" rx="23.2149" fill="black"/>
<rect x="1008.92" y="549.424" width="263.102" height="46.4297" rx="23.2149" transform="rotate(23.3602 1008.92 549.424)" fill="black"/>
<rect width="263.102" height="46.4297" rx="23.2149" transform="matrix(0.91803 -0.39651 -0.39651 -0.91803 1008.92 239.811)" fill="black"/>
</svg>
