<svg width="74" height="53" viewBox="0 0 74 53" fill="none" xmlns="http://www.w3.org/2000/svg">
<path d="M11.1 22.7143C15.1816 22.7143 18.5 19.319 18.5 15.1429C18.5 10.9667 15.1816 7.57143 11.1 7.57143C7.01844 7.57143 3.7 10.9667 3.7 15.1429C3.7 19.319 7.01844 22.7143 11.1 22.7143ZM62.9 22.7143C66.9816 22.7143 70.3 19.319 70.3 15.1429C70.3 10.9667 66.9816 7.57143 62.9 7.57143C58.8184 7.57143 55.5 10.9667 55.5 15.1429C55.5 19.319 58.8184 22.7143 62.9 22.7143ZM66.6 26.5H59.2C57.165 26.5 55.3266 27.34 53.9853 28.7004C58.645 31.315 61.9519 36.0353 62.6688 41.6429H70.3C72.3466 41.6429 74 39.9511 74 37.8571V34.0714C74 29.8953 70.6816 26.5 66.6 26.5ZM37 26.5C44.1572 26.5 49.95 20.573 49.95 13.25C49.95 5.92701 44.1572 0 37 0C29.8428 0 24.05 5.92701 24.05 13.25C24.05 20.573 29.8428 26.5 37 26.5ZM45.88 30.2857H44.9203C42.5153 31.4688 39.8444 32.1786 37 32.1786C34.1556 32.1786 31.4963 31.4688 29.0797 30.2857H28.12C20.7663 30.2857 14.8 36.3902 14.8 43.9143V47.3214C14.8 50.4565 17.2859 53 20.35 53H53.65C56.7141 53 59.2 50.4565 59.2 47.3214V43.9143C59.2 36.3902 53.2337 30.2857 45.88 30.2857ZM20.0147 28.7004C18.6734 27.34 16.835 26.5 14.8 26.5H7.4C3.31844 26.5 0 29.8953 0 34.0714V37.8571C0 39.9511 1.65344 41.6429 3.7 41.6429H11.3197C12.0481 36.0353 15.355 31.315 20.0147 28.7004Z" fill="#2B2B2B"/>
</svg>
