<svg width="70" height="70" viewBox="0 0 70 70" fill="none" xmlns="http://www.w3.org/2000/svg">
<path d="M69.048 60.5195L55.4162 46.89C54.8009 46.2748 53.9668 45.933 53.0918 45.933H50.8631C54.6368 41.1073 56.8792 35.0376 56.8792 28.4347C56.8792 12.7273 44.1497 0 28.4396 0C12.7294 0 0 12.7273 0 28.4347C0 44.1422 12.7294 56.8694 28.4396 56.8694C35.0436 56.8694 41.1143 54.6275 45.9409 50.8544V53.0827C45.9409 53.9576 46.2827 54.7915 46.898 55.4067L60.5298 69.0362C61.8151 70.3213 63.8933 70.3213 65.1649 69.0362L69.0343 65.1675C70.3196 63.8824 70.3196 61.8045 69.048 60.5195ZM28.4396 45.933C18.7729 45.933 10.9383 38.1135 10.9383 28.4347C10.9383 18.7697 18.7592 10.9364 28.4396 10.9364C38.1063 10.9364 45.9409 18.756 45.9409 28.4347C45.9409 38.0998 38.12 45.933 28.4396 45.933Z" fill="#233B92"/>
</svg>
