<svg width="1437" height="900" viewBox="0 0 1437 900" fill="none" xmlns="http://www.w3.org/2000/svg">
<path fill-rule="evenodd" clip-rule="evenodd" d="M237.492 0C209.878 0 187.492 22.3857 187.492 49.9999V556.249C187.492 583.863 209.878 606.249 237.492 606.249H1168.74C1196.35 606.249 1218.74 583.863 1218.74 556.249V50C1218.74 22.3858 1196.35 0 1168.74 0H237.492ZM307.14 52.9414C279.526 52.9414 257.14 75.3272 257.14 102.941V502.1C257.14 529.715 279.526 552.1 307.14 552.1H1092.01C1119.63 552.1 1142.01 529.715 1142.01 502.1V102.941C1142.01 75.3272 1119.63 52.9414 1092.01 52.9414H307.14Z" fill="black"/>
<path d="M159.528 667.822C173.518 647.461 196.638 635.295 221.342 635.295H1182.65C1205 635.295 1226.19 645.262 1240.44 662.482L1335.35 777.187C1375.81 826.084 1341.03 900 1277.57 900H142.529C82.1503 900 46.5217 832.292 80.7144 782.528L159.528 667.822Z" fill="black"/>
</svg>
